<mxfile host="app.diagrams.net" modified="2023-05-10T21:00:59.386Z" agent="Mozilla/5.0 (Windows NT 10.0; Win64; x64) AppleWebKit/537.36 (KHTML, like Gecko) Chrome/112.0.0.0 Safari/537.36" etag="dGypzlzn5Sx-EfB1QIss" version="21.2.6" type="device">
  <diagram name="Page-1" id="SNs07N5e4GusGWtZYbrB">
    <mxGraphModel dx="3000" dy="883" grid="1" gridSize="10" guides="1" tooltips="1" connect="1" arrows="1" fold="1" page="1" pageScale="1" pageWidth="850" pageHeight="1100" math="0" shadow="0">
      <root>
        <mxCell id="0" />
        <mxCell id="1" parent="0" />
        <mxCell id="h3pDWreBq4Vg2lyj4H8S-9" value="" style="endArrow=none;html=1;rounded=0;" edge="1" parent="1">
          <mxGeometry width="50" height="50" relative="1" as="geometry">
            <mxPoint x="360" y="360" as="sourcePoint" />
            <mxPoint x="360" y="240" as="targetPoint" />
          </mxGeometry>
        </mxCell>
        <mxCell id="h3pDWreBq4Vg2lyj4H8S-10" value="" style="endArrow=none;html=1;rounded=0;" edge="1" parent="1">
          <mxGeometry width="50" height="50" relative="1" as="geometry">
            <mxPoint x="400" y="360" as="sourcePoint" />
            <mxPoint x="400" y="240" as="targetPoint" />
          </mxGeometry>
        </mxCell>
        <mxCell id="h3pDWreBq4Vg2lyj4H8S-11" value="" style="endArrow=none;html=1;rounded=0;" edge="1" parent="1">
          <mxGeometry width="50" height="50" relative="1" as="geometry">
            <mxPoint x="440" y="280" as="sourcePoint" />
            <mxPoint x="320" y="280" as="targetPoint" />
          </mxGeometry>
        </mxCell>
        <mxCell id="h3pDWreBq4Vg2lyj4H8S-12" value="" style="endArrow=none;html=1;rounded=0;" edge="1" parent="1">
          <mxGeometry width="50" height="50" relative="1" as="geometry">
            <mxPoint x="440" y="320" as="sourcePoint" />
            <mxPoint x="320" y="320" as="targetPoint" />
          </mxGeometry>
        </mxCell>
        <mxCell id="h3pDWreBq4Vg2lyj4H8S-22" value="" style="endArrow=classic;html=1;rounded=0;" edge="1" parent="1">
          <mxGeometry width="50" height="50" relative="1" as="geometry">
            <mxPoint x="380" y="160" as="sourcePoint" />
            <mxPoint x="380" y="240" as="targetPoint" />
          </mxGeometry>
        </mxCell>
        <mxCell id="h3pDWreBq4Vg2lyj4H8S-25" value="" style="endArrow=none;html=1;rounded=0;" edge="1" parent="1">
          <mxGeometry width="50" height="50" relative="1" as="geometry">
            <mxPoint x="360" y="320" as="sourcePoint" />
            <mxPoint x="400" y="280" as="targetPoint" />
          </mxGeometry>
        </mxCell>
        <mxCell id="h3pDWreBq4Vg2lyj4H8S-26" value="" style="endArrow=none;html=1;rounded=0;" edge="1" parent="1">
          <mxGeometry width="50" height="50" relative="1" as="geometry">
            <mxPoint x="360" y="280" as="sourcePoint" />
            <mxPoint x="400" y="320" as="targetPoint" />
          </mxGeometry>
        </mxCell>
        <mxCell id="h3pDWreBq4Vg2lyj4H8S-35" value="" style="group" vertex="1" connectable="0" parent="1">
          <mxGeometry x="320" y="40" width="120" height="120" as="geometry" />
        </mxCell>
        <mxCell id="h3pDWreBq4Vg2lyj4H8S-1" value="" style="endArrow=none;html=1;rounded=0;" edge="1" parent="h3pDWreBq4Vg2lyj4H8S-35">
          <mxGeometry width="50" height="50" relative="1" as="geometry">
            <mxPoint x="40" y="120" as="sourcePoint" />
            <mxPoint x="40" as="targetPoint" />
          </mxGeometry>
        </mxCell>
        <mxCell id="h3pDWreBq4Vg2lyj4H8S-2" value="" style="endArrow=none;html=1;rounded=0;" edge="1" parent="h3pDWreBq4Vg2lyj4H8S-35">
          <mxGeometry width="50" height="50" relative="1" as="geometry">
            <mxPoint x="80" y="120" as="sourcePoint" />
            <mxPoint x="80" as="targetPoint" />
          </mxGeometry>
        </mxCell>
        <mxCell id="h3pDWreBq4Vg2lyj4H8S-3" value="" style="endArrow=none;html=1;rounded=0;" edge="1" parent="h3pDWreBq4Vg2lyj4H8S-35">
          <mxGeometry width="50" height="50" relative="1" as="geometry">
            <mxPoint x="120" y="40" as="sourcePoint" />
            <mxPoint y="40" as="targetPoint" />
          </mxGeometry>
        </mxCell>
        <mxCell id="h3pDWreBq4Vg2lyj4H8S-4" value="" style="endArrow=none;html=1;rounded=0;" edge="1" parent="h3pDWreBq4Vg2lyj4H8S-35">
          <mxGeometry width="50" height="50" relative="1" as="geometry">
            <mxPoint x="120" y="80" as="sourcePoint" />
            <mxPoint y="80" as="targetPoint" />
          </mxGeometry>
        </mxCell>
        <mxCell id="h3pDWreBq4Vg2lyj4H8S-36" value="" style="endArrow=classic;html=1;rounded=0;" edge="1" parent="1">
          <mxGeometry width="50" height="50" relative="1" as="geometry">
            <mxPoint x="379.68" y="360" as="sourcePoint" />
            <mxPoint x="300" y="440" as="targetPoint" />
          </mxGeometry>
        </mxCell>
        <mxCell id="h3pDWreBq4Vg2lyj4H8S-37" value="" style="group" vertex="1" connectable="0" parent="1">
          <mxGeometry x="400" y="440" width="120" height="120" as="geometry" />
        </mxCell>
        <mxCell id="h3pDWreBq4Vg2lyj4H8S-38" value="" style="endArrow=none;html=1;rounded=0;" edge="1" parent="h3pDWreBq4Vg2lyj4H8S-37">
          <mxGeometry width="50" height="50" relative="1" as="geometry">
            <mxPoint x="40" y="120" as="sourcePoint" />
            <mxPoint x="40" as="targetPoint" />
          </mxGeometry>
        </mxCell>
        <mxCell id="h3pDWreBq4Vg2lyj4H8S-39" value="" style="endArrow=none;html=1;rounded=0;" edge="1" parent="h3pDWreBq4Vg2lyj4H8S-37">
          <mxGeometry width="50" height="50" relative="1" as="geometry">
            <mxPoint x="80" y="120" as="sourcePoint" />
            <mxPoint x="80" as="targetPoint" />
          </mxGeometry>
        </mxCell>
        <mxCell id="h3pDWreBq4Vg2lyj4H8S-40" value="" style="endArrow=none;html=1;rounded=0;" edge="1" parent="h3pDWreBq4Vg2lyj4H8S-37">
          <mxGeometry width="50" height="50" relative="1" as="geometry">
            <mxPoint x="120" y="40" as="sourcePoint" />
            <mxPoint y="40" as="targetPoint" />
          </mxGeometry>
        </mxCell>
        <mxCell id="h3pDWreBq4Vg2lyj4H8S-41" value="" style="endArrow=none;html=1;rounded=0;" edge="1" parent="h3pDWreBq4Vg2lyj4H8S-37">
          <mxGeometry width="50" height="50" relative="1" as="geometry">
            <mxPoint x="120" y="80" as="sourcePoint" />
            <mxPoint y="80" as="targetPoint" />
          </mxGeometry>
        </mxCell>
        <mxCell id="h3pDWreBq4Vg2lyj4H8S-60" value="" style="ellipse;whiteSpace=wrap;html=1;aspect=fixed;" vertex="1" parent="h3pDWreBq4Vg2lyj4H8S-37">
          <mxGeometry x="40" width="40" height="40" as="geometry" />
        </mxCell>
        <mxCell id="h3pDWreBq4Vg2lyj4H8S-42" value="" style="group" vertex="1" connectable="0" parent="1">
          <mxGeometry x="240" y="440" width="120" height="120" as="geometry" />
        </mxCell>
        <mxCell id="h3pDWreBq4Vg2lyj4H8S-43" value="" style="endArrow=none;html=1;rounded=0;" edge="1" parent="h3pDWreBq4Vg2lyj4H8S-42">
          <mxGeometry width="50" height="50" relative="1" as="geometry">
            <mxPoint x="40" y="120" as="sourcePoint" />
            <mxPoint x="40" as="targetPoint" />
          </mxGeometry>
        </mxCell>
        <mxCell id="h3pDWreBq4Vg2lyj4H8S-44" value="" style="endArrow=none;html=1;rounded=0;" edge="1" parent="h3pDWreBq4Vg2lyj4H8S-42">
          <mxGeometry width="50" height="50" relative="1" as="geometry">
            <mxPoint x="80" y="120" as="sourcePoint" />
            <mxPoint x="80" as="targetPoint" />
          </mxGeometry>
        </mxCell>
        <mxCell id="h3pDWreBq4Vg2lyj4H8S-45" value="" style="endArrow=none;html=1;rounded=0;" edge="1" parent="h3pDWreBq4Vg2lyj4H8S-42">
          <mxGeometry width="50" height="50" relative="1" as="geometry">
            <mxPoint x="120" y="40" as="sourcePoint" />
            <mxPoint y="40" as="targetPoint" />
          </mxGeometry>
        </mxCell>
        <mxCell id="h3pDWreBq4Vg2lyj4H8S-46" value="" style="endArrow=none;html=1;rounded=0;" edge="1" parent="h3pDWreBq4Vg2lyj4H8S-42">
          <mxGeometry width="50" height="50" relative="1" as="geometry">
            <mxPoint x="120" y="80" as="sourcePoint" />
            <mxPoint y="80" as="targetPoint" />
          </mxGeometry>
        </mxCell>
        <mxCell id="h3pDWreBq4Vg2lyj4H8S-53" value="" style="ellipse;whiteSpace=wrap;html=1;aspect=fixed;" vertex="1" parent="h3pDWreBq4Vg2lyj4H8S-42">
          <mxGeometry width="40" height="40" as="geometry" />
        </mxCell>
        <mxCell id="h3pDWreBq4Vg2lyj4H8S-54" value="" style="group" vertex="1" connectable="0" parent="h3pDWreBq4Vg2lyj4H8S-42">
          <mxGeometry x="40" y="40" width="40" height="40" as="geometry" />
        </mxCell>
        <mxCell id="h3pDWreBq4Vg2lyj4H8S-55" value="" style="endArrow=none;html=1;rounded=0;" edge="1" parent="h3pDWreBq4Vg2lyj4H8S-54">
          <mxGeometry width="50" height="50" relative="1" as="geometry">
            <mxPoint y="40" as="sourcePoint" />
            <mxPoint x="40" as="targetPoint" />
          </mxGeometry>
        </mxCell>
        <mxCell id="h3pDWreBq4Vg2lyj4H8S-56" value="" style="endArrow=none;html=1;rounded=0;" edge="1" parent="h3pDWreBq4Vg2lyj4H8S-54">
          <mxGeometry width="50" height="50" relative="1" as="geometry">
            <mxPoint as="sourcePoint" />
            <mxPoint x="40" y="40" as="targetPoint" />
          </mxGeometry>
        </mxCell>
        <mxCell id="h3pDWreBq4Vg2lyj4H8S-52" value="" style="endArrow=classic;html=1;rounded=0;" edge="1" parent="1">
          <mxGeometry width="50" height="50" relative="1" as="geometry">
            <mxPoint x="379.68" y="360" as="sourcePoint" />
            <mxPoint x="460" y="440" as="targetPoint" />
          </mxGeometry>
        </mxCell>
        <mxCell id="h3pDWreBq4Vg2lyj4H8S-57" value="" style="group" vertex="1" connectable="0" parent="1">
          <mxGeometry x="440" y="480" width="40" height="40" as="geometry" />
        </mxCell>
        <mxCell id="h3pDWreBq4Vg2lyj4H8S-58" value="" style="endArrow=none;html=1;rounded=0;" edge="1" parent="h3pDWreBq4Vg2lyj4H8S-57">
          <mxGeometry width="50" height="50" relative="1" as="geometry">
            <mxPoint y="40" as="sourcePoint" />
            <mxPoint x="40" as="targetPoint" />
          </mxGeometry>
        </mxCell>
        <mxCell id="h3pDWreBq4Vg2lyj4H8S-59" value="" style="endArrow=none;html=1;rounded=0;" edge="1" parent="h3pDWreBq4Vg2lyj4H8S-57">
          <mxGeometry width="50" height="50" relative="1" as="geometry">
            <mxPoint as="sourcePoint" />
            <mxPoint x="40" y="40" as="targetPoint" />
          </mxGeometry>
        </mxCell>
        <mxCell id="h3pDWreBq4Vg2lyj4H8S-61" value="" style="group" vertex="1" connectable="0" parent="1">
          <mxGeometry x="-280" y="240" width="120" height="120" as="geometry" />
        </mxCell>
        <mxCell id="h3pDWreBq4Vg2lyj4H8S-5" value="" style="endArrow=none;html=1;rounded=0;" edge="1" parent="h3pDWreBq4Vg2lyj4H8S-61">
          <mxGeometry width="50" height="50" relative="1" as="geometry">
            <mxPoint x="40" y="120" as="sourcePoint" />
            <mxPoint x="40" as="targetPoint" />
          </mxGeometry>
        </mxCell>
        <mxCell id="h3pDWreBq4Vg2lyj4H8S-6" value="" style="endArrow=none;html=1;rounded=0;" edge="1" parent="h3pDWreBq4Vg2lyj4H8S-61">
          <mxGeometry width="50" height="50" relative="1" as="geometry">
            <mxPoint x="80" y="120" as="sourcePoint" />
            <mxPoint x="80" as="targetPoint" />
          </mxGeometry>
        </mxCell>
        <mxCell id="h3pDWreBq4Vg2lyj4H8S-7" value="" style="endArrow=none;html=1;rounded=0;" edge="1" parent="h3pDWreBq4Vg2lyj4H8S-61">
          <mxGeometry width="50" height="50" relative="1" as="geometry">
            <mxPoint x="120" y="40" as="sourcePoint" />
            <mxPoint y="40" as="targetPoint" />
          </mxGeometry>
        </mxCell>
        <mxCell id="h3pDWreBq4Vg2lyj4H8S-8" value="" style="endArrow=none;html=1;rounded=0;" edge="1" parent="h3pDWreBq4Vg2lyj4H8S-61">
          <mxGeometry width="50" height="50" relative="1" as="geometry">
            <mxPoint x="120" y="80" as="sourcePoint" />
            <mxPoint y="80" as="targetPoint" />
          </mxGeometry>
        </mxCell>
        <mxCell id="h3pDWreBq4Vg2lyj4H8S-29" value="" style="group" vertex="1" connectable="0" parent="h3pDWreBq4Vg2lyj4H8S-61">
          <mxGeometry width="40" height="40" as="geometry" />
        </mxCell>
        <mxCell id="h3pDWreBq4Vg2lyj4H8S-30" value="" style="endArrow=none;html=1;rounded=0;" edge="1" parent="h3pDWreBq4Vg2lyj4H8S-29">
          <mxGeometry width="50" height="50" relative="1" as="geometry">
            <mxPoint y="40" as="sourcePoint" />
            <mxPoint x="40" as="targetPoint" />
          </mxGeometry>
        </mxCell>
        <mxCell id="h3pDWreBq4Vg2lyj4H8S-31" value="" style="endArrow=none;html=1;rounded=0;" edge="1" parent="h3pDWreBq4Vg2lyj4H8S-29">
          <mxGeometry width="50" height="50" relative="1" as="geometry">
            <mxPoint as="sourcePoint" />
            <mxPoint x="40" y="40" as="targetPoint" />
          </mxGeometry>
        </mxCell>
        <mxCell id="h3pDWreBq4Vg2lyj4H8S-155" value="" style="endArrow=classic;html=1;rounded=0;" edge="1" parent="h3pDWreBq4Vg2lyj4H8S-61">
          <mxGeometry width="50" height="50" relative="1" as="geometry">
            <mxPoint x="60" y="120" as="sourcePoint" />
            <mxPoint x="60" y="200" as="targetPoint" />
          </mxGeometry>
        </mxCell>
        <mxCell id="h3pDWreBq4Vg2lyj4H8S-156" value="" style="endArrow=classic;html=1;rounded=0;" edge="1" parent="h3pDWreBq4Vg2lyj4H8S-61">
          <mxGeometry width="50" height="50" relative="1" as="geometry">
            <mxPoint x="59.68000000000001" y="120" as="sourcePoint" />
            <mxPoint x="-100" y="200" as="targetPoint" />
          </mxGeometry>
        </mxCell>
        <mxCell id="h3pDWreBq4Vg2lyj4H8S-157" value="" style="endArrow=classic;html=1;rounded=0;" edge="1" parent="h3pDWreBq4Vg2lyj4H8S-61">
          <mxGeometry width="50" height="50" relative="1" as="geometry">
            <mxPoint x="59.68000000000001" y="120" as="sourcePoint" />
            <mxPoint x="-260" y="200" as="targetPoint" />
          </mxGeometry>
        </mxCell>
        <mxCell id="h3pDWreBq4Vg2lyj4H8S-159" value="" style="endArrow=classic;html=1;rounded=0;" edge="1" parent="h3pDWreBq4Vg2lyj4H8S-61">
          <mxGeometry width="50" height="50" relative="1" as="geometry">
            <mxPoint x="59.68000000000001" y="120" as="sourcePoint" />
            <mxPoint x="380" y="200" as="targetPoint" />
          </mxGeometry>
        </mxCell>
        <mxCell id="h3pDWreBq4Vg2lyj4H8S-62" value="" style="endArrow=classic;html=1;rounded=0;" edge="1" parent="1">
          <mxGeometry width="50" height="50" relative="1" as="geometry">
            <mxPoint x="379.68" y="160" as="sourcePoint" />
            <mxPoint x="-220" y="240" as="targetPoint" />
          </mxGeometry>
        </mxCell>
        <mxCell id="h3pDWreBq4Vg2lyj4H8S-63" value="" style="endArrow=classic;html=1;rounded=0;" edge="1" parent="1">
          <mxGeometry width="50" height="50" relative="1" as="geometry">
            <mxPoint x="379.68" y="160" as="sourcePoint" />
            <mxPoint x="980" y="240" as="targetPoint" />
          </mxGeometry>
        </mxCell>
        <mxCell id="h3pDWreBq4Vg2lyj4H8S-64" value="" style="group" vertex="1" connectable="0" parent="1">
          <mxGeometry x="920" y="240" width="120" height="120" as="geometry" />
        </mxCell>
        <mxCell id="h3pDWreBq4Vg2lyj4H8S-17" value="" style="endArrow=none;html=1;rounded=0;" edge="1" parent="h3pDWreBq4Vg2lyj4H8S-64">
          <mxGeometry width="50" height="50" relative="1" as="geometry">
            <mxPoint x="40" y="120" as="sourcePoint" />
            <mxPoint x="40" as="targetPoint" />
          </mxGeometry>
        </mxCell>
        <mxCell id="h3pDWreBq4Vg2lyj4H8S-18" value="" style="endArrow=none;html=1;rounded=0;" edge="1" parent="h3pDWreBq4Vg2lyj4H8S-64">
          <mxGeometry width="50" height="50" relative="1" as="geometry">
            <mxPoint x="80" y="120" as="sourcePoint" />
            <mxPoint x="80" as="targetPoint" />
          </mxGeometry>
        </mxCell>
        <mxCell id="h3pDWreBq4Vg2lyj4H8S-19" value="" style="endArrow=none;html=1;rounded=0;" edge="1" parent="h3pDWreBq4Vg2lyj4H8S-64">
          <mxGeometry width="50" height="50" relative="1" as="geometry">
            <mxPoint x="120" y="40" as="sourcePoint" />
            <mxPoint y="40" as="targetPoint" />
          </mxGeometry>
        </mxCell>
        <mxCell id="h3pDWreBq4Vg2lyj4H8S-20" value="" style="endArrow=none;html=1;rounded=0;" edge="1" parent="h3pDWreBq4Vg2lyj4H8S-64">
          <mxGeometry width="50" height="50" relative="1" as="geometry">
            <mxPoint x="120" y="80" as="sourcePoint" />
            <mxPoint y="80" as="targetPoint" />
          </mxGeometry>
        </mxCell>
        <mxCell id="h3pDWreBq4Vg2lyj4H8S-32" value="" style="group" vertex="1" connectable="0" parent="h3pDWreBq4Vg2lyj4H8S-64">
          <mxGeometry x="40" width="40" height="40" as="geometry" />
        </mxCell>
        <mxCell id="h3pDWreBq4Vg2lyj4H8S-33" value="" style="endArrow=none;html=1;rounded=0;" edge="1" parent="h3pDWreBq4Vg2lyj4H8S-32">
          <mxGeometry width="50" height="50" relative="1" as="geometry">
            <mxPoint y="40" as="sourcePoint" />
            <mxPoint x="40" as="targetPoint" />
          </mxGeometry>
        </mxCell>
        <mxCell id="h3pDWreBq4Vg2lyj4H8S-34" value="" style="endArrow=none;html=1;rounded=0;" edge="1" parent="h3pDWreBq4Vg2lyj4H8S-32">
          <mxGeometry width="50" height="50" relative="1" as="geometry">
            <mxPoint as="sourcePoint" />
            <mxPoint x="40" y="40" as="targetPoint" />
          </mxGeometry>
        </mxCell>
        <mxCell id="h3pDWreBq4Vg2lyj4H8S-65" value="" style="group" vertex="1" connectable="0" parent="1">
          <mxGeometry x="-120" y="440" width="120" height="120" as="geometry" />
        </mxCell>
        <mxCell id="h3pDWreBq4Vg2lyj4H8S-66" value="" style="endArrow=none;html=1;rounded=0;" edge="1" parent="h3pDWreBq4Vg2lyj4H8S-65">
          <mxGeometry width="50" height="50" relative="1" as="geometry">
            <mxPoint x="40" y="120" as="sourcePoint" />
            <mxPoint x="40" as="targetPoint" />
          </mxGeometry>
        </mxCell>
        <mxCell id="h3pDWreBq4Vg2lyj4H8S-67" value="" style="endArrow=none;html=1;rounded=0;" edge="1" parent="h3pDWreBq4Vg2lyj4H8S-65">
          <mxGeometry width="50" height="50" relative="1" as="geometry">
            <mxPoint x="80" y="120" as="sourcePoint" />
            <mxPoint x="80" as="targetPoint" />
          </mxGeometry>
        </mxCell>
        <mxCell id="h3pDWreBq4Vg2lyj4H8S-68" value="" style="endArrow=none;html=1;rounded=0;" edge="1" parent="h3pDWreBq4Vg2lyj4H8S-65">
          <mxGeometry width="50" height="50" relative="1" as="geometry">
            <mxPoint x="120" y="40" as="sourcePoint" />
            <mxPoint y="40" as="targetPoint" />
          </mxGeometry>
        </mxCell>
        <mxCell id="h3pDWreBq4Vg2lyj4H8S-69" value="" style="endArrow=none;html=1;rounded=0;" edge="1" parent="h3pDWreBq4Vg2lyj4H8S-65">
          <mxGeometry width="50" height="50" relative="1" as="geometry">
            <mxPoint x="120" y="80" as="sourcePoint" />
            <mxPoint y="80" as="targetPoint" />
          </mxGeometry>
        </mxCell>
        <mxCell id="h3pDWreBq4Vg2lyj4H8S-70" value="" style="group" vertex="1" connectable="0" parent="h3pDWreBq4Vg2lyj4H8S-65">
          <mxGeometry width="40" height="40" as="geometry" />
        </mxCell>
        <mxCell id="h3pDWreBq4Vg2lyj4H8S-71" value="" style="endArrow=none;html=1;rounded=0;" edge="1" parent="h3pDWreBq4Vg2lyj4H8S-70">
          <mxGeometry width="50" height="50" relative="1" as="geometry">
            <mxPoint y="40" as="sourcePoint" />
            <mxPoint x="40" as="targetPoint" />
          </mxGeometry>
        </mxCell>
        <mxCell id="h3pDWreBq4Vg2lyj4H8S-72" value="" style="endArrow=none;html=1;rounded=0;" edge="1" parent="h3pDWreBq4Vg2lyj4H8S-70">
          <mxGeometry width="50" height="50" relative="1" as="geometry">
            <mxPoint as="sourcePoint" />
            <mxPoint x="40" y="40" as="targetPoint" />
          </mxGeometry>
        </mxCell>
        <mxCell id="h3pDWreBq4Vg2lyj4H8S-27" value="" style="ellipse;whiteSpace=wrap;html=1;aspect=fixed;" vertex="1" parent="h3pDWreBq4Vg2lyj4H8S-65">
          <mxGeometry x="40" width="40" height="40" as="geometry" />
        </mxCell>
        <mxCell id="h3pDWreBq4Vg2lyj4H8S-73" value="" style="group" vertex="1" connectable="0" parent="1">
          <mxGeometry x="40" y="440" width="120" height="120" as="geometry" />
        </mxCell>
        <mxCell id="h3pDWreBq4Vg2lyj4H8S-74" value="" style="endArrow=none;html=1;rounded=0;" edge="1" parent="h3pDWreBq4Vg2lyj4H8S-73">
          <mxGeometry width="50" height="50" relative="1" as="geometry">
            <mxPoint x="40" y="120" as="sourcePoint" />
            <mxPoint x="40" as="targetPoint" />
          </mxGeometry>
        </mxCell>
        <mxCell id="h3pDWreBq4Vg2lyj4H8S-75" value="" style="endArrow=none;html=1;rounded=0;" edge="1" parent="h3pDWreBq4Vg2lyj4H8S-73">
          <mxGeometry width="50" height="50" relative="1" as="geometry">
            <mxPoint x="80" y="120" as="sourcePoint" />
            <mxPoint x="80" as="targetPoint" />
          </mxGeometry>
        </mxCell>
        <mxCell id="h3pDWreBq4Vg2lyj4H8S-76" value="" style="endArrow=none;html=1;rounded=0;" edge="1" parent="h3pDWreBq4Vg2lyj4H8S-73">
          <mxGeometry width="50" height="50" relative="1" as="geometry">
            <mxPoint x="120" y="40" as="sourcePoint" />
            <mxPoint y="40" as="targetPoint" />
          </mxGeometry>
        </mxCell>
        <mxCell id="h3pDWreBq4Vg2lyj4H8S-77" value="" style="endArrow=none;html=1;rounded=0;" edge="1" parent="h3pDWreBq4Vg2lyj4H8S-73">
          <mxGeometry width="50" height="50" relative="1" as="geometry">
            <mxPoint x="120" y="80" as="sourcePoint" />
            <mxPoint y="80" as="targetPoint" />
          </mxGeometry>
        </mxCell>
        <mxCell id="h3pDWreBq4Vg2lyj4H8S-78" value="" style="group" vertex="1" connectable="0" parent="h3pDWreBq4Vg2lyj4H8S-73">
          <mxGeometry width="40" height="40" as="geometry" />
        </mxCell>
        <mxCell id="h3pDWreBq4Vg2lyj4H8S-79" value="" style="endArrow=none;html=1;rounded=0;" edge="1" parent="h3pDWreBq4Vg2lyj4H8S-78">
          <mxGeometry width="50" height="50" relative="1" as="geometry">
            <mxPoint y="40" as="sourcePoint" />
            <mxPoint x="40" as="targetPoint" />
          </mxGeometry>
        </mxCell>
        <mxCell id="h3pDWreBq4Vg2lyj4H8S-80" value="" style="endArrow=none;html=1;rounded=0;" edge="1" parent="h3pDWreBq4Vg2lyj4H8S-78">
          <mxGeometry width="50" height="50" relative="1" as="geometry">
            <mxPoint as="sourcePoint" />
            <mxPoint x="40" y="40" as="targetPoint" />
          </mxGeometry>
        </mxCell>
        <mxCell id="h3pDWreBq4Vg2lyj4H8S-82" value="" style="ellipse;whiteSpace=wrap;html=1;aspect=fixed;" vertex="1" parent="h3pDWreBq4Vg2lyj4H8S-73">
          <mxGeometry x="80" width="40" height="40" as="geometry" />
        </mxCell>
        <mxCell id="h3pDWreBq4Vg2lyj4H8S-83" value="" style="group" vertex="1" connectable="0" parent="1">
          <mxGeometry x="-280" y="440" width="165" height="150" as="geometry" />
        </mxCell>
        <mxCell id="h3pDWreBq4Vg2lyj4H8S-84" value="" style="endArrow=none;html=1;rounded=0;" edge="1" parent="h3pDWreBq4Vg2lyj4H8S-83">
          <mxGeometry width="50" height="50" relative="1" as="geometry">
            <mxPoint x="40" y="120" as="sourcePoint" />
            <mxPoint x="40" as="targetPoint" />
          </mxGeometry>
        </mxCell>
        <mxCell id="h3pDWreBq4Vg2lyj4H8S-85" value="" style="endArrow=none;html=1;rounded=0;" edge="1" parent="h3pDWreBq4Vg2lyj4H8S-83">
          <mxGeometry width="50" height="50" relative="1" as="geometry">
            <mxPoint x="80" y="120" as="sourcePoint" />
            <mxPoint x="80" as="targetPoint" />
          </mxGeometry>
        </mxCell>
        <mxCell id="h3pDWreBq4Vg2lyj4H8S-86" value="" style="endArrow=none;html=1;rounded=0;" edge="1" parent="h3pDWreBq4Vg2lyj4H8S-83">
          <mxGeometry width="50" height="50" relative="1" as="geometry">
            <mxPoint x="120" y="40" as="sourcePoint" />
            <mxPoint y="40" as="targetPoint" />
          </mxGeometry>
        </mxCell>
        <mxCell id="h3pDWreBq4Vg2lyj4H8S-87" value="" style="endArrow=none;html=1;rounded=0;" edge="1" parent="h3pDWreBq4Vg2lyj4H8S-83">
          <mxGeometry width="50" height="50" relative="1" as="geometry">
            <mxPoint x="120" y="80" as="sourcePoint" />
            <mxPoint y="80" as="targetPoint" />
          </mxGeometry>
        </mxCell>
        <mxCell id="h3pDWreBq4Vg2lyj4H8S-88" value="" style="group" vertex="1" connectable="0" parent="h3pDWreBq4Vg2lyj4H8S-83">
          <mxGeometry width="40" height="40" as="geometry" />
        </mxCell>
        <mxCell id="h3pDWreBq4Vg2lyj4H8S-89" value="" style="endArrow=none;html=1;rounded=0;" edge="1" parent="h3pDWreBq4Vg2lyj4H8S-88">
          <mxGeometry width="50" height="50" relative="1" as="geometry">
            <mxPoint y="40" as="sourcePoint" />
            <mxPoint x="40" as="targetPoint" />
          </mxGeometry>
        </mxCell>
        <mxCell id="h3pDWreBq4Vg2lyj4H8S-90" value="" style="endArrow=none;html=1;rounded=0;" edge="1" parent="h3pDWreBq4Vg2lyj4H8S-88">
          <mxGeometry width="50" height="50" relative="1" as="geometry">
            <mxPoint as="sourcePoint" />
            <mxPoint x="40" y="40" as="targetPoint" />
          </mxGeometry>
        </mxCell>
        <mxCell id="h3pDWreBq4Vg2lyj4H8S-91" value="" style="ellipse;whiteSpace=wrap;html=1;aspect=fixed;" vertex="1" parent="h3pDWreBq4Vg2lyj4H8S-83">
          <mxGeometry x="40" y="40" width="40" height="40" as="geometry" />
        </mxCell>
        <mxCell id="h3pDWreBq4Vg2lyj4H8S-92" value="" style="group" vertex="1" connectable="0" parent="1">
          <mxGeometry x="-440" y="440" width="120" height="120" as="geometry" />
        </mxCell>
        <mxCell id="h3pDWreBq4Vg2lyj4H8S-93" value="" style="endArrow=none;html=1;rounded=0;" edge="1" parent="h3pDWreBq4Vg2lyj4H8S-92">
          <mxGeometry width="50" height="50" relative="1" as="geometry">
            <mxPoint x="40" y="120" as="sourcePoint" />
            <mxPoint x="40" as="targetPoint" />
          </mxGeometry>
        </mxCell>
        <mxCell id="h3pDWreBq4Vg2lyj4H8S-94" value="" style="endArrow=none;html=1;rounded=0;" edge="1" parent="h3pDWreBq4Vg2lyj4H8S-92">
          <mxGeometry width="50" height="50" relative="1" as="geometry">
            <mxPoint x="80" y="120" as="sourcePoint" />
            <mxPoint x="80" as="targetPoint" />
          </mxGeometry>
        </mxCell>
        <mxCell id="h3pDWreBq4Vg2lyj4H8S-95" value="" style="endArrow=none;html=1;rounded=0;" edge="1" parent="h3pDWreBq4Vg2lyj4H8S-92">
          <mxGeometry width="50" height="50" relative="1" as="geometry">
            <mxPoint x="120" y="40" as="sourcePoint" />
            <mxPoint y="40" as="targetPoint" />
          </mxGeometry>
        </mxCell>
        <mxCell id="h3pDWreBq4Vg2lyj4H8S-96" value="" style="endArrow=none;html=1;rounded=0;" edge="1" parent="h3pDWreBq4Vg2lyj4H8S-92">
          <mxGeometry width="50" height="50" relative="1" as="geometry">
            <mxPoint x="120" y="80" as="sourcePoint" />
            <mxPoint y="80" as="targetPoint" />
          </mxGeometry>
        </mxCell>
        <mxCell id="h3pDWreBq4Vg2lyj4H8S-97" value="" style="group" vertex="1" connectable="0" parent="h3pDWreBq4Vg2lyj4H8S-92">
          <mxGeometry width="40" height="40" as="geometry" />
        </mxCell>
        <mxCell id="h3pDWreBq4Vg2lyj4H8S-98" value="" style="endArrow=none;html=1;rounded=0;" edge="1" parent="h3pDWreBq4Vg2lyj4H8S-97">
          <mxGeometry width="50" height="50" relative="1" as="geometry">
            <mxPoint y="40" as="sourcePoint" />
            <mxPoint x="40" as="targetPoint" />
          </mxGeometry>
        </mxCell>
        <mxCell id="h3pDWreBq4Vg2lyj4H8S-99" value="" style="endArrow=none;html=1;rounded=0;" edge="1" parent="h3pDWreBq4Vg2lyj4H8S-97">
          <mxGeometry width="50" height="50" relative="1" as="geometry">
            <mxPoint as="sourcePoint" />
            <mxPoint x="40" y="40" as="targetPoint" />
          </mxGeometry>
        </mxCell>
        <mxCell id="h3pDWreBq4Vg2lyj4H8S-100" value="" style="ellipse;whiteSpace=wrap;html=1;aspect=fixed;" vertex="1" parent="h3pDWreBq4Vg2lyj4H8S-92">
          <mxGeometry x="80" y="40" width="40" height="40" as="geometry" />
        </mxCell>
        <mxCell id="h3pDWreBq4Vg2lyj4H8S-101" value="" style="group" vertex="1" connectable="0" parent="1">
          <mxGeometry x="-600" y="440" width="120" height="120" as="geometry" />
        </mxCell>
        <mxCell id="h3pDWreBq4Vg2lyj4H8S-102" value="" style="endArrow=none;html=1;rounded=0;" edge="1" parent="h3pDWreBq4Vg2lyj4H8S-101">
          <mxGeometry width="50" height="50" relative="1" as="geometry">
            <mxPoint x="40" y="120" as="sourcePoint" />
            <mxPoint x="40" as="targetPoint" />
          </mxGeometry>
        </mxCell>
        <mxCell id="h3pDWreBq4Vg2lyj4H8S-103" value="" style="endArrow=none;html=1;rounded=0;" edge="1" parent="h3pDWreBq4Vg2lyj4H8S-101">
          <mxGeometry width="50" height="50" relative="1" as="geometry">
            <mxPoint x="80" y="120" as="sourcePoint" />
            <mxPoint x="80" as="targetPoint" />
          </mxGeometry>
        </mxCell>
        <mxCell id="h3pDWreBq4Vg2lyj4H8S-104" value="" style="endArrow=none;html=1;rounded=0;" edge="1" parent="h3pDWreBq4Vg2lyj4H8S-101">
          <mxGeometry width="50" height="50" relative="1" as="geometry">
            <mxPoint x="120" y="40" as="sourcePoint" />
            <mxPoint y="40" as="targetPoint" />
          </mxGeometry>
        </mxCell>
        <mxCell id="h3pDWreBq4Vg2lyj4H8S-105" value="" style="endArrow=none;html=1;rounded=0;" edge="1" parent="h3pDWreBq4Vg2lyj4H8S-101">
          <mxGeometry width="50" height="50" relative="1" as="geometry">
            <mxPoint x="120" y="80" as="sourcePoint" />
            <mxPoint y="80" as="targetPoint" />
          </mxGeometry>
        </mxCell>
        <mxCell id="h3pDWreBq4Vg2lyj4H8S-106" value="" style="group" vertex="1" connectable="0" parent="h3pDWreBq4Vg2lyj4H8S-101">
          <mxGeometry width="40" height="40" as="geometry" />
        </mxCell>
        <mxCell id="h3pDWreBq4Vg2lyj4H8S-107" value="" style="endArrow=none;html=1;rounded=0;" edge="1" parent="h3pDWreBq4Vg2lyj4H8S-106">
          <mxGeometry width="50" height="50" relative="1" as="geometry">
            <mxPoint y="40" as="sourcePoint" />
            <mxPoint x="40" as="targetPoint" />
          </mxGeometry>
        </mxCell>
        <mxCell id="h3pDWreBq4Vg2lyj4H8S-108" value="" style="endArrow=none;html=1;rounded=0;" edge="1" parent="h3pDWreBq4Vg2lyj4H8S-106">
          <mxGeometry width="50" height="50" relative="1" as="geometry">
            <mxPoint as="sourcePoint" />
            <mxPoint x="40" y="40" as="targetPoint" />
          </mxGeometry>
        </mxCell>
        <mxCell id="h3pDWreBq4Vg2lyj4H8S-109" value="" style="ellipse;whiteSpace=wrap;html=1;aspect=fixed;" vertex="1" parent="h3pDWreBq4Vg2lyj4H8S-101">
          <mxGeometry x="80" y="80" width="40" height="40" as="geometry" />
        </mxCell>
        <mxCell id="h3pDWreBq4Vg2lyj4H8S-110" value="" style="group" vertex="1" connectable="0" parent="1">
          <mxGeometry x="600" y="440" width="120" height="120" as="geometry" />
        </mxCell>
        <mxCell id="h3pDWreBq4Vg2lyj4H8S-111" value="" style="endArrow=none;html=1;rounded=0;" edge="1" parent="h3pDWreBq4Vg2lyj4H8S-110">
          <mxGeometry width="50" height="50" relative="1" as="geometry">
            <mxPoint x="40" y="120" as="sourcePoint" />
            <mxPoint x="40" as="targetPoint" />
          </mxGeometry>
        </mxCell>
        <mxCell id="h3pDWreBq4Vg2lyj4H8S-112" value="" style="endArrow=none;html=1;rounded=0;" edge="1" parent="h3pDWreBq4Vg2lyj4H8S-110">
          <mxGeometry width="50" height="50" relative="1" as="geometry">
            <mxPoint x="80" y="120" as="sourcePoint" />
            <mxPoint x="80" as="targetPoint" />
          </mxGeometry>
        </mxCell>
        <mxCell id="h3pDWreBq4Vg2lyj4H8S-113" value="" style="endArrow=none;html=1;rounded=0;" edge="1" parent="h3pDWreBq4Vg2lyj4H8S-110">
          <mxGeometry width="50" height="50" relative="1" as="geometry">
            <mxPoint x="120" y="40" as="sourcePoint" />
            <mxPoint y="40" as="targetPoint" />
          </mxGeometry>
        </mxCell>
        <mxCell id="h3pDWreBq4Vg2lyj4H8S-114" value="" style="endArrow=none;html=1;rounded=0;" edge="1" parent="h3pDWreBq4Vg2lyj4H8S-110">
          <mxGeometry width="50" height="50" relative="1" as="geometry">
            <mxPoint x="120" y="80" as="sourcePoint" />
            <mxPoint y="80" as="targetPoint" />
          </mxGeometry>
        </mxCell>
        <mxCell id="h3pDWreBq4Vg2lyj4H8S-115" value="" style="group" vertex="1" connectable="0" parent="h3pDWreBq4Vg2lyj4H8S-110">
          <mxGeometry x="40" width="40" height="40" as="geometry" />
        </mxCell>
        <mxCell id="h3pDWreBq4Vg2lyj4H8S-116" value="" style="endArrow=none;html=1;rounded=0;" edge="1" parent="h3pDWreBq4Vg2lyj4H8S-115">
          <mxGeometry width="50" height="50" relative="1" as="geometry">
            <mxPoint y="40" as="sourcePoint" />
            <mxPoint x="40" as="targetPoint" />
          </mxGeometry>
        </mxCell>
        <mxCell id="h3pDWreBq4Vg2lyj4H8S-117" value="" style="endArrow=none;html=1;rounded=0;" edge="1" parent="h3pDWreBq4Vg2lyj4H8S-115">
          <mxGeometry width="50" height="50" relative="1" as="geometry">
            <mxPoint as="sourcePoint" />
            <mxPoint x="40" y="40" as="targetPoint" />
          </mxGeometry>
        </mxCell>
        <mxCell id="h3pDWreBq4Vg2lyj4H8S-118" value="" style="ellipse;whiteSpace=wrap;html=1;aspect=fixed;" vertex="1" parent="h3pDWreBq4Vg2lyj4H8S-110">
          <mxGeometry width="40" height="40" as="geometry" />
        </mxCell>
        <mxCell id="h3pDWreBq4Vg2lyj4H8S-119" value="" style="group" vertex="1" connectable="0" parent="1">
          <mxGeometry x="760" y="440" width="140.63" height="140.63" as="geometry" />
        </mxCell>
        <mxCell id="h3pDWreBq4Vg2lyj4H8S-120" value="" style="endArrow=none;html=1;rounded=0;" edge="1" parent="h3pDWreBq4Vg2lyj4H8S-119">
          <mxGeometry width="50" height="50" relative="1" as="geometry">
            <mxPoint x="40" y="120" as="sourcePoint" />
            <mxPoint x="40" as="targetPoint" />
          </mxGeometry>
        </mxCell>
        <mxCell id="h3pDWreBq4Vg2lyj4H8S-121" value="" style="endArrow=none;html=1;rounded=0;" edge="1" parent="h3pDWreBq4Vg2lyj4H8S-119">
          <mxGeometry width="50" height="50" relative="1" as="geometry">
            <mxPoint x="80" y="120" as="sourcePoint" />
            <mxPoint x="80" as="targetPoint" />
          </mxGeometry>
        </mxCell>
        <mxCell id="h3pDWreBq4Vg2lyj4H8S-122" value="" style="endArrow=none;html=1;rounded=0;" edge="1" parent="h3pDWreBq4Vg2lyj4H8S-119">
          <mxGeometry width="50" height="50" relative="1" as="geometry">
            <mxPoint x="120" y="40" as="sourcePoint" />
            <mxPoint y="40" as="targetPoint" />
          </mxGeometry>
        </mxCell>
        <mxCell id="h3pDWreBq4Vg2lyj4H8S-123" value="" style="endArrow=none;html=1;rounded=0;" edge="1" parent="h3pDWreBq4Vg2lyj4H8S-119">
          <mxGeometry width="50" height="50" relative="1" as="geometry">
            <mxPoint x="120" y="80" as="sourcePoint" />
            <mxPoint y="80" as="targetPoint" />
          </mxGeometry>
        </mxCell>
        <mxCell id="h3pDWreBq4Vg2lyj4H8S-124" value="" style="group" vertex="1" connectable="0" parent="h3pDWreBq4Vg2lyj4H8S-119">
          <mxGeometry x="40" width="40" height="40" as="geometry" />
        </mxCell>
        <mxCell id="h3pDWreBq4Vg2lyj4H8S-125" value="" style="endArrow=none;html=1;rounded=0;" edge="1" parent="h3pDWreBq4Vg2lyj4H8S-124">
          <mxGeometry width="50" height="50" relative="1" as="geometry">
            <mxPoint y="40" as="sourcePoint" />
            <mxPoint x="40" as="targetPoint" />
          </mxGeometry>
        </mxCell>
        <mxCell id="h3pDWreBq4Vg2lyj4H8S-126" value="" style="endArrow=none;html=1;rounded=0;" edge="1" parent="h3pDWreBq4Vg2lyj4H8S-124">
          <mxGeometry width="50" height="50" relative="1" as="geometry">
            <mxPoint as="sourcePoint" />
            <mxPoint x="40" y="40" as="targetPoint" />
          </mxGeometry>
        </mxCell>
        <mxCell id="h3pDWreBq4Vg2lyj4H8S-127" value="" style="ellipse;whiteSpace=wrap;html=1;aspect=fixed;" vertex="1" parent="h3pDWreBq4Vg2lyj4H8S-119">
          <mxGeometry y="40" width="40" height="40" as="geometry" />
        </mxCell>
        <mxCell id="h3pDWreBq4Vg2lyj4H8S-194" value="" style="ellipse;whiteSpace=wrap;html=1;aspect=fixed;fillColor=none;strokeColor=#FF1717;" vertex="1" parent="h3pDWreBq4Vg2lyj4H8S-119">
          <mxGeometry x="-20" y="-20.62" width="160.62" height="160.62" as="geometry" />
        </mxCell>
        <mxCell id="h3pDWreBq4Vg2lyj4H8S-128" value="" style="group" vertex="1" connectable="0" parent="1">
          <mxGeometry x="920" y="440" width="140.63" height="140.62" as="geometry" />
        </mxCell>
        <mxCell id="h3pDWreBq4Vg2lyj4H8S-129" value="" style="endArrow=none;html=1;rounded=0;" edge="1" parent="h3pDWreBq4Vg2lyj4H8S-128">
          <mxGeometry width="50" height="50" relative="1" as="geometry">
            <mxPoint x="40" y="120" as="sourcePoint" />
            <mxPoint x="40" as="targetPoint" />
          </mxGeometry>
        </mxCell>
        <mxCell id="h3pDWreBq4Vg2lyj4H8S-130" value="" style="endArrow=none;html=1;rounded=0;" edge="1" parent="h3pDWreBq4Vg2lyj4H8S-128">
          <mxGeometry width="50" height="50" relative="1" as="geometry">
            <mxPoint x="80" y="120" as="sourcePoint" />
            <mxPoint x="80" as="targetPoint" />
          </mxGeometry>
        </mxCell>
        <mxCell id="h3pDWreBq4Vg2lyj4H8S-131" value="" style="endArrow=none;html=1;rounded=0;" edge="1" parent="h3pDWreBq4Vg2lyj4H8S-128">
          <mxGeometry width="50" height="50" relative="1" as="geometry">
            <mxPoint x="120" y="40" as="sourcePoint" />
            <mxPoint y="40" as="targetPoint" />
          </mxGeometry>
        </mxCell>
        <mxCell id="h3pDWreBq4Vg2lyj4H8S-132" value="" style="endArrow=none;html=1;rounded=0;" edge="1" parent="h3pDWreBq4Vg2lyj4H8S-128">
          <mxGeometry width="50" height="50" relative="1" as="geometry">
            <mxPoint x="120" y="80" as="sourcePoint" />
            <mxPoint y="80" as="targetPoint" />
          </mxGeometry>
        </mxCell>
        <mxCell id="h3pDWreBq4Vg2lyj4H8S-133" value="" style="group" vertex="1" connectable="0" parent="h3pDWreBq4Vg2lyj4H8S-128">
          <mxGeometry x="40" width="40" height="40" as="geometry" />
        </mxCell>
        <mxCell id="h3pDWreBq4Vg2lyj4H8S-134" value="" style="endArrow=none;html=1;rounded=0;" edge="1" parent="h3pDWreBq4Vg2lyj4H8S-133">
          <mxGeometry width="50" height="50" relative="1" as="geometry">
            <mxPoint y="40" as="sourcePoint" />
            <mxPoint x="40" as="targetPoint" />
          </mxGeometry>
        </mxCell>
        <mxCell id="h3pDWreBq4Vg2lyj4H8S-135" value="" style="endArrow=none;html=1;rounded=0;" edge="1" parent="h3pDWreBq4Vg2lyj4H8S-133">
          <mxGeometry width="50" height="50" relative="1" as="geometry">
            <mxPoint as="sourcePoint" />
            <mxPoint x="40" y="40" as="targetPoint" />
          </mxGeometry>
        </mxCell>
        <mxCell id="h3pDWreBq4Vg2lyj4H8S-136" value="" style="ellipse;whiteSpace=wrap;html=1;aspect=fixed;" vertex="1" parent="h3pDWreBq4Vg2lyj4H8S-128">
          <mxGeometry x="40" y="40" width="40" height="40" as="geometry" />
        </mxCell>
        <mxCell id="h3pDWreBq4Vg2lyj4H8S-200" value="" style="ellipse;whiteSpace=wrap;html=1;aspect=fixed;fillColor=none;strokeColor=#FF1717;" vertex="1" parent="h3pDWreBq4Vg2lyj4H8S-128">
          <mxGeometry x="-20" y="-20.63" width="160.63" height="160.63" as="geometry" />
        </mxCell>
        <mxCell id="h3pDWreBq4Vg2lyj4H8S-137" value="" style="group" vertex="1" connectable="0" parent="1">
          <mxGeometry x="1080" y="440" width="140.6300000000001" height="140.62" as="geometry" />
        </mxCell>
        <mxCell id="h3pDWreBq4Vg2lyj4H8S-138" value="" style="endArrow=none;html=1;rounded=0;" edge="1" parent="h3pDWreBq4Vg2lyj4H8S-137">
          <mxGeometry width="50" height="50" relative="1" as="geometry">
            <mxPoint x="40" y="120" as="sourcePoint" />
            <mxPoint x="40" as="targetPoint" />
          </mxGeometry>
        </mxCell>
        <mxCell id="h3pDWreBq4Vg2lyj4H8S-139" value="" style="endArrow=none;html=1;rounded=0;" edge="1" parent="h3pDWreBq4Vg2lyj4H8S-137">
          <mxGeometry width="50" height="50" relative="1" as="geometry">
            <mxPoint x="80" y="120" as="sourcePoint" />
            <mxPoint x="80" as="targetPoint" />
          </mxGeometry>
        </mxCell>
        <mxCell id="h3pDWreBq4Vg2lyj4H8S-140" value="" style="endArrow=none;html=1;rounded=0;" edge="1" parent="h3pDWreBq4Vg2lyj4H8S-137">
          <mxGeometry width="50" height="50" relative="1" as="geometry">
            <mxPoint x="120" y="40" as="sourcePoint" />
            <mxPoint y="40" as="targetPoint" />
          </mxGeometry>
        </mxCell>
        <mxCell id="h3pDWreBq4Vg2lyj4H8S-141" value="" style="endArrow=none;html=1;rounded=0;" edge="1" parent="h3pDWreBq4Vg2lyj4H8S-137">
          <mxGeometry width="50" height="50" relative="1" as="geometry">
            <mxPoint x="120" y="80" as="sourcePoint" />
            <mxPoint y="80" as="targetPoint" />
          </mxGeometry>
        </mxCell>
        <mxCell id="h3pDWreBq4Vg2lyj4H8S-142" value="" style="group" vertex="1" connectable="0" parent="h3pDWreBq4Vg2lyj4H8S-137">
          <mxGeometry x="40" width="40" height="40" as="geometry" />
        </mxCell>
        <mxCell id="h3pDWreBq4Vg2lyj4H8S-143" value="" style="endArrow=none;html=1;rounded=0;" edge="1" parent="h3pDWreBq4Vg2lyj4H8S-142">
          <mxGeometry width="50" height="50" relative="1" as="geometry">
            <mxPoint y="40" as="sourcePoint" />
            <mxPoint x="40" as="targetPoint" />
          </mxGeometry>
        </mxCell>
        <mxCell id="h3pDWreBq4Vg2lyj4H8S-144" value="" style="endArrow=none;html=1;rounded=0;" edge="1" parent="h3pDWreBq4Vg2lyj4H8S-142">
          <mxGeometry width="50" height="50" relative="1" as="geometry">
            <mxPoint as="sourcePoint" />
            <mxPoint x="40" y="40" as="targetPoint" />
          </mxGeometry>
        </mxCell>
        <mxCell id="h3pDWreBq4Vg2lyj4H8S-145" value="" style="ellipse;whiteSpace=wrap;html=1;aspect=fixed;" vertex="1" parent="h3pDWreBq4Vg2lyj4H8S-137">
          <mxGeometry y="80" width="40" height="40" as="geometry" />
        </mxCell>
        <mxCell id="h3pDWreBq4Vg2lyj4H8S-201" value="" style="ellipse;whiteSpace=wrap;html=1;aspect=fixed;fillColor=none;strokeColor=#FF1717;" vertex="1" parent="h3pDWreBq4Vg2lyj4H8S-137">
          <mxGeometry x="-20" y="-20.63" width="160.63" height="160.63" as="geometry" />
        </mxCell>
        <mxCell id="h3pDWreBq4Vg2lyj4H8S-146" value="" style="group" vertex="1" connectable="0" parent="1">
          <mxGeometry x="1240" y="440" width="140.31000000000006" height="140.31" as="geometry" />
        </mxCell>
        <mxCell id="h3pDWreBq4Vg2lyj4H8S-147" value="" style="endArrow=none;html=1;rounded=0;" edge="1" parent="h3pDWreBq4Vg2lyj4H8S-146">
          <mxGeometry width="50" height="50" relative="1" as="geometry">
            <mxPoint x="40" y="120" as="sourcePoint" />
            <mxPoint x="40" as="targetPoint" />
          </mxGeometry>
        </mxCell>
        <mxCell id="h3pDWreBq4Vg2lyj4H8S-148" value="" style="endArrow=none;html=1;rounded=0;" edge="1" parent="h3pDWreBq4Vg2lyj4H8S-146">
          <mxGeometry width="50" height="50" relative="1" as="geometry">
            <mxPoint x="80" y="120" as="sourcePoint" />
            <mxPoint x="80" as="targetPoint" />
          </mxGeometry>
        </mxCell>
        <mxCell id="h3pDWreBq4Vg2lyj4H8S-149" value="" style="endArrow=none;html=1;rounded=0;" edge="1" parent="h3pDWreBq4Vg2lyj4H8S-146">
          <mxGeometry width="50" height="50" relative="1" as="geometry">
            <mxPoint x="120" y="40" as="sourcePoint" />
            <mxPoint y="40" as="targetPoint" />
          </mxGeometry>
        </mxCell>
        <mxCell id="h3pDWreBq4Vg2lyj4H8S-150" value="" style="endArrow=none;html=1;rounded=0;" edge="1" parent="h3pDWreBq4Vg2lyj4H8S-146">
          <mxGeometry width="50" height="50" relative="1" as="geometry">
            <mxPoint x="120" y="80" as="sourcePoint" />
            <mxPoint y="80" as="targetPoint" />
          </mxGeometry>
        </mxCell>
        <mxCell id="h3pDWreBq4Vg2lyj4H8S-151" value="" style="group" vertex="1" connectable="0" parent="h3pDWreBq4Vg2lyj4H8S-146">
          <mxGeometry x="40" width="40" height="40" as="geometry" />
        </mxCell>
        <mxCell id="h3pDWreBq4Vg2lyj4H8S-152" value="" style="endArrow=none;html=1;rounded=0;" edge="1" parent="h3pDWreBq4Vg2lyj4H8S-151">
          <mxGeometry width="50" height="50" relative="1" as="geometry">
            <mxPoint y="40" as="sourcePoint" />
            <mxPoint x="40" as="targetPoint" />
          </mxGeometry>
        </mxCell>
        <mxCell id="h3pDWreBq4Vg2lyj4H8S-153" value="" style="endArrow=none;html=1;rounded=0;" edge="1" parent="h3pDWreBq4Vg2lyj4H8S-151">
          <mxGeometry width="50" height="50" relative="1" as="geometry">
            <mxPoint as="sourcePoint" />
            <mxPoint x="40" y="40" as="targetPoint" />
          </mxGeometry>
        </mxCell>
        <mxCell id="h3pDWreBq4Vg2lyj4H8S-154" value="" style="ellipse;whiteSpace=wrap;html=1;aspect=fixed;" vertex="1" parent="h3pDWreBq4Vg2lyj4H8S-146">
          <mxGeometry x="40" y="80" width="40" height="40" as="geometry" />
        </mxCell>
        <mxCell id="h3pDWreBq4Vg2lyj4H8S-202" value="" style="ellipse;whiteSpace=wrap;html=1;aspect=fixed;fillColor=none;strokeColor=#FF1717;" vertex="1" parent="h3pDWreBq4Vg2lyj4H8S-146">
          <mxGeometry x="-20.319999999999936" y="-20.319999999999993" width="160.63" height="160.63" as="geometry" />
        </mxCell>
        <mxCell id="h3pDWreBq4Vg2lyj4H8S-158" value="" style="endArrow=classic;html=1;rounded=0;entryX=0.5;entryY=0;entryDx=0;entryDy=0;" edge="1" parent="1" target="h3pDWreBq4Vg2lyj4H8S-27">
          <mxGeometry width="50" height="50" relative="1" as="geometry">
            <mxPoint x="-220.32" y="360" as="sourcePoint" />
            <mxPoint x="-220.32" y="440" as="targetPoint" />
          </mxGeometry>
        </mxCell>
        <mxCell id="h3pDWreBq4Vg2lyj4H8S-160" value="" style="endArrow=classic;html=1;rounded=0;" edge="1" parent="1">
          <mxGeometry width="50" height="50" relative="1" as="geometry">
            <mxPoint x="980" y="360" as="sourcePoint" />
            <mxPoint x="980" y="440" as="targetPoint" />
          </mxGeometry>
        </mxCell>
        <mxCell id="h3pDWreBq4Vg2lyj4H8S-161" value="" style="endArrow=classic;html=1;rounded=0;" edge="1" parent="1">
          <mxGeometry width="50" height="50" relative="1" as="geometry">
            <mxPoint x="979.6800000000001" y="360" as="sourcePoint" />
            <mxPoint x="820" y="440" as="targetPoint" />
          </mxGeometry>
        </mxCell>
        <mxCell id="h3pDWreBq4Vg2lyj4H8S-162" value="" style="endArrow=classic;html=1;rounded=0;" edge="1" parent="1">
          <mxGeometry width="50" height="50" relative="1" as="geometry">
            <mxPoint x="979.6800000000001" y="360" as="sourcePoint" />
            <mxPoint x="660" y="440" as="targetPoint" />
          </mxGeometry>
        </mxCell>
        <mxCell id="h3pDWreBq4Vg2lyj4H8S-163" value="" style="endArrow=classic;html=1;rounded=0;" edge="1" parent="1">
          <mxGeometry width="50" height="50" relative="1" as="geometry">
            <mxPoint x="979.6800000000001" y="360" as="sourcePoint" />
            <mxPoint x="1300" y="440" as="targetPoint" />
          </mxGeometry>
        </mxCell>
        <mxCell id="h3pDWreBq4Vg2lyj4H8S-164" value="" style="endArrow=classic;html=1;rounded=0;entryX=0.5;entryY=0;entryDx=0;entryDy=0;" edge="1" parent="1">
          <mxGeometry width="50" height="50" relative="1" as="geometry">
            <mxPoint x="979.6800000000001" y="360" as="sourcePoint" />
            <mxPoint x="1140" y="440" as="targetPoint" />
          </mxGeometry>
        </mxCell>
        <mxCell id="h3pDWreBq4Vg2lyj4H8S-165" value="&lt;font style=&quot;font-size: 24px;&quot;&gt;EVAL = 3&lt;/font&gt;" style="text;html=1;strokeColor=none;fillColor=none;align=center;verticalAlign=middle;whiteSpace=wrap;rounded=0;" vertex="1" parent="1">
          <mxGeometry x="-297.5" y="210" width="120" height="30" as="geometry" />
        </mxCell>
        <mxCell id="h3pDWreBq4Vg2lyj4H8S-166" value="&lt;font style=&quot;font-size: 24px;&quot;&gt;EVAL = 4&lt;/font&gt;" style="text;html=1;strokeColor=none;fillColor=none;align=center;verticalAlign=middle;whiteSpace=wrap;rounded=0;" vertex="1" parent="1">
          <mxGeometry x="390" y="210" width="110" height="30" as="geometry" />
        </mxCell>
        <mxCell id="h3pDWreBq4Vg2lyj4H8S-167" value="&lt;font style=&quot;font-size: 24px;&quot;&gt;EVAL = 2&lt;/font&gt;" style="text;html=1;strokeColor=none;fillColor=none;align=center;verticalAlign=middle;whiteSpace=wrap;rounded=0;" vertex="1" parent="1">
          <mxGeometry x="950" y="210" width="160" height="30" as="geometry" />
        </mxCell>
        <mxCell id="h3pDWreBq4Vg2lyj4H8S-168" value="&lt;font style=&quot;font-size: 24px;&quot;&gt;EVAL = 3 - 3 &lt;br&gt;= 0&lt;/font&gt;" style="text;html=1;strokeColor=none;fillColor=none;align=center;verticalAlign=middle;whiteSpace=wrap;rounded=0;" vertex="1" parent="1">
          <mxGeometry x="-615" y="560" width="150" height="60" as="geometry" />
        </mxCell>
        <mxCell id="h3pDWreBq4Vg2lyj4H8S-169" value="&lt;font style=&quot;font-size: 24px;&quot;&gt;EVAL = 3 - 2&lt;br&gt;= 1&lt;/font&gt;" style="text;html=1;strokeColor=none;fillColor=none;align=center;verticalAlign=middle;whiteSpace=wrap;rounded=0;" vertex="1" parent="1">
          <mxGeometry x="-457.5" y="560" width="155" height="60" as="geometry" />
        </mxCell>
        <mxCell id="h3pDWreBq4Vg2lyj4H8S-170" value="&lt;font style=&quot;font-size: 24px;&quot;&gt;EVAL = 3 - 4&lt;br&gt;= -1&lt;/font&gt;" style="text;html=1;strokeColor=none;fillColor=none;align=center;verticalAlign=middle;whiteSpace=wrap;rounded=0;" vertex="1" parent="1">
          <mxGeometry x="-297.5" y="560" width="155" height="60" as="geometry" />
        </mxCell>
        <mxCell id="h3pDWreBq4Vg2lyj4H8S-171" value="&lt;font style=&quot;font-size: 24px;&quot;&gt;EVAL = 3 - 2&lt;br&gt;= 1&lt;/font&gt;" style="text;html=1;strokeColor=none;fillColor=none;align=center;verticalAlign=middle;whiteSpace=wrap;rounded=0;" vertex="1" parent="1">
          <mxGeometry x="-132.5" y="560" width="145" height="60" as="geometry" />
        </mxCell>
        <mxCell id="h3pDWreBq4Vg2lyj4H8S-172" value="&lt;font style=&quot;font-size: 24px;&quot;&gt;EVAL = 3 - 3&lt;br&gt;= 0&lt;/font&gt;" style="text;html=1;strokeColor=none;fillColor=none;align=center;verticalAlign=middle;whiteSpace=wrap;rounded=0;" vertex="1" parent="1">
          <mxGeometry x="22.5" y="560" width="155" height="60" as="geometry" />
        </mxCell>
        <mxCell id="h3pDWreBq4Vg2lyj4H8S-173" value="&lt;font style=&quot;font-size: 24px;&quot;&gt;EVAL = 4 - 3&lt;br&gt;= 1&lt;/font&gt;" style="text;html=1;strokeColor=none;fillColor=none;align=center;verticalAlign=middle;whiteSpace=wrap;rounded=0;" vertex="1" parent="1">
          <mxGeometry x="227.5" y="560" width="145" height="60" as="geometry" />
        </mxCell>
        <mxCell id="h3pDWreBq4Vg2lyj4H8S-180" value="&lt;font style=&quot;font-size: 24px;&quot;&gt;EVAL = 4 - 2&lt;br&gt;= 2&lt;/font&gt;" style="text;html=1;strokeColor=none;fillColor=none;align=center;verticalAlign=middle;whiteSpace=wrap;rounded=0;" vertex="1" parent="1">
          <mxGeometry x="387.5" y="560" width="145" height="60" as="geometry" />
        </mxCell>
        <mxCell id="h3pDWreBq4Vg2lyj4H8S-181" value="&lt;font style=&quot;font-size: 24px;&quot;&gt;EVAL = 2 - 3&lt;br&gt;= -1&lt;/font&gt;" style="text;html=1;strokeColor=none;fillColor=none;align=center;verticalAlign=middle;whiteSpace=wrap;rounded=0;" vertex="1" parent="1">
          <mxGeometry x="587.5" y="560" width="145" height="60" as="geometry" />
        </mxCell>
        <mxCell id="h3pDWreBq4Vg2lyj4H8S-182" value="&lt;font style=&quot;font-size: 24px;&quot;&gt;EVAL = 2 - 2&lt;br&gt;= 0&lt;/font&gt;" style="text;html=1;strokeColor=none;fillColor=none;align=center;verticalAlign=middle;whiteSpace=wrap;rounded=0;" vertex="1" parent="1">
          <mxGeometry x="747.5" y="560" width="145" height="60" as="geometry" />
        </mxCell>
        <mxCell id="h3pDWreBq4Vg2lyj4H8S-183" value="&lt;font style=&quot;font-size: 24px;&quot;&gt;EVAL = 2 - 4&lt;br&gt;= -2&lt;/font&gt;" style="text;html=1;strokeColor=none;fillColor=none;align=center;verticalAlign=middle;whiteSpace=wrap;rounded=0;" vertex="1" parent="1">
          <mxGeometry x="907.5" y="560" width="145" height="60" as="geometry" />
        </mxCell>
        <mxCell id="h3pDWreBq4Vg2lyj4H8S-184" value="&lt;font style=&quot;font-size: 24px;&quot;&gt;EVAL = 2 - 3&lt;br&gt;= -1&lt;/font&gt;" style="text;html=1;strokeColor=none;fillColor=none;align=center;verticalAlign=middle;whiteSpace=wrap;rounded=0;" vertex="1" parent="1">
          <mxGeometry x="1067.5" y="560" width="145" height="60" as="geometry" />
        </mxCell>
        <mxCell id="h3pDWreBq4Vg2lyj4H8S-185" value="&lt;font style=&quot;font-size: 24px;&quot;&gt;EVAL = 2 - 2&lt;br&gt;= 0&lt;/font&gt;" style="text;html=1;strokeColor=none;fillColor=none;align=center;verticalAlign=middle;whiteSpace=wrap;rounded=0;" vertex="1" parent="1">
          <mxGeometry x="1227.5" y="560" width="145" height="60" as="geometry" />
        </mxCell>
        <mxCell id="h3pDWreBq4Vg2lyj4H8S-195" value="&lt;font style=&quot;font-size: 36px;&quot;&gt;ALPHA = -inf&lt;br&gt;BETA = -1&lt;/font&gt;" style="text;html=1;strokeColor=none;fillColor=none;align=center;verticalAlign=middle;whiteSpace=wrap;rounded=0;" vertex="1" parent="1">
          <mxGeometry x="-160" y="240" width="210" height="80" as="geometry" />
        </mxCell>
        <mxCell id="h3pDWreBq4Vg2lyj4H8S-196" value="&lt;font style=&quot;font-size: 36px;&quot;&gt;ALPHA = -1&lt;br&gt;BETA = 1&lt;/font&gt;" style="text;html=1;strokeColor=none;fillColor=none;align=center;verticalAlign=middle;whiteSpace=wrap;rounded=0;" vertex="1" parent="1">
          <mxGeometry x="440" y="240" width="210" height="80" as="geometry" />
        </mxCell>
        <mxCell id="h3pDWreBq4Vg2lyj4H8S-197" value="&lt;font style=&quot;font-size: 36px;&quot;&gt;ALPHA = 1&lt;br&gt;BETA = -1&lt;/font&gt;" style="text;html=1;strokeColor=none;fillColor=none;align=center;verticalAlign=middle;whiteSpace=wrap;rounded=0;" vertex="1" parent="1">
          <mxGeometry x="440" y="40" width="210" height="80" as="geometry" />
        </mxCell>
        <mxCell id="h3pDWreBq4Vg2lyj4H8S-198" value="&lt;font style=&quot;font-size: 36px;&quot;&gt;ALPHA = 1&lt;br&gt;BETA = -1&lt;/font&gt;" style="text;html=1;strokeColor=none;fillColor=none;align=center;verticalAlign=middle;whiteSpace=wrap;rounded=0;" vertex="1" parent="1">
          <mxGeometry x="1040" y="240" width="210" height="80" as="geometry" />
        </mxCell>
      </root>
    </mxGraphModel>
  </diagram>
</mxfile>
